<svg width="64" height="32" viewBox="0 0 64 32" fill="none" xmlns="http://www.w3.org/2000/svg">
<g clip-path="url(#clip0_5_35)">
<mask id="mask0_5_35" style="mask-type:alpha" maskUnits="userSpaceOnUse" x="20" y="4" width="24" height="24">
<path d="M44 4H20V28H44V4Z" fill="#D9D9D9"/>
</mask>
<g mask="url(#mask0_5_35)">
<path d="M35 25L29 22.9L24.35 24.7C24.0167 24.8333 23.7083 24.7958 23.425 24.5875C23.1417 24.3792 23 24.1 23 23.75V9.75C23 9.53333 23.0625 9.34167 23.1875 9.175C23.3125 9.00833 23.4833 8.88333 23.7 8.8L29 7L35 9.1L39.65 7.3C39.9833 7.16667 40.2917 7.20417 40.575 7.4125C40.8583 7.62083 41 7.9 41 8.25V22.25C41 22.4667 40.9375 22.6583 40.8125 22.825C40.6875 22.9917 40.5167 23.1167 40.3 23.2L35 25ZM34 22.55V10.85L30 9.45V21.15L34 22.55ZM36 22.55L39 21.55V9.7L36 10.85V22.55ZM25 22.3L28 21.15V9.45L25 10.45V22.3Z" fill="#1D1B20"/>
</g>
</g>
<defs>
<clipPath id="clip0_5_35">
<rect width="24" height="24" fill="white" transform="translate(20 4)"/>
</clipPath>
</defs>
</svg>
