<svg width="64" height="32" viewBox="0 0 64 32" fill="none" xmlns="http://www.w3.org/2000/svg">
<mask id="mask0_549_10749" style="mask-type:alpha" maskUnits="userSpaceOnUse" x="20" y="4" width="24" height="24">
<rect x="20" y="4" width="24" height="24" fill="#D9D9D9"/>
</mask>
<g mask="url(#mask0_549_10749)">
<path d="M27.5 15C26.5333 15 25.7083 14.6583 25.025 13.975C24.3417 13.2917 24 12.4667 24 11.5C24 10.5333 24.3417 9.70833 25.025 9.025C25.7083 8.34167 26.5333 8 27.5 8C28.4667 8 29.2917 8.34167 29.975 9.025C30.6583 9.70833 31 10.5333 31 11.5C31 12.4667 30.6583 13.2917 29.975 13.975C29.2917 14.6583 28.4667 15 27.5 15ZM27.5 13C27.9167 13 28.2708 12.8542 28.5625 12.5625C28.8542 12.2708 29 11.9167 29 11.5C29 11.0833 28.8542 10.7292 28.5625 10.4375C28.2708 10.1458 27.9167 10 27.5 10C27.0833 10 26.7292 10.1458 26.4375 10.4375C26.1458 10.7292 26 11.0833 26 11.5C26 11.9167 26.1458 12.2708 26.4375 12.5625C26.7292 12.8542 27.0833 13 27.5 13ZM36.5 24C35.5333 24 34.7083 23.6583 34.025 22.975C33.3417 22.2917 33 21.4667 33 20.5C33 19.5333 33.3417 18.7083 34.025 18.025C34.7083 17.3417 35.5333 17 36.5 17C37.4667 17 38.2917 17.3417 38.975 18.025C39.6583 18.7083 40 19.5333 40 20.5C40 21.4667 39.6583 22.2917 38.975 22.975C38.2917 23.6583 37.4667 24 36.5 24ZM36.5 22C36.9167 22 37.2708 21.8542 37.5625 21.5625C37.8542 21.2708 38 20.9167 38 20.5C38 20.0833 37.8542 19.7292 37.5625 19.4375C37.2708 19.1458 36.9167 19 36.5 19C36.0833 19 35.7292 19.1458 35.4375 19.4375C35.1458 19.7292 35 20.0833 35 20.5C35 20.9167 35.1458 21.2708 35.4375 21.5625C35.7292 21.8542 36.0833 22 36.5 22ZM25.4 24L24 22.6L38.6 8L40 9.4L25.4 24Z" fill="#1D1B20"/>
</g>
</svg>
