<svg width="64" height="32" viewBox="0 0 64 32" fill="none" xmlns="http://www.w3.org/2000/svg">
<rect width="64" height="32" rx="16" fill="#FF8243"/>
<mask id="mask0_549_10889" style="mask-type:alpha" maskUnits="userSpaceOnUse" x="20" y="4" width="24" height="24">
<rect x="20" y="4" width="24" height="24" fill="#D9D9D9"/>
</mask>
<g mask="url(#mask0_549_10889)">
<path d="M38.95 26C36.8667 26 34.8083 25.5458 32.775 24.6375C30.7417 23.7292 28.8917 22.4417 27.225 20.775C25.5583 19.1083 24.2708 17.2583 23.3625 15.225C22.4542 13.1917 22 11.1333 22 9.05C22 8.75 22.1 8.5 22.3 8.3C22.5 8.1 22.75 8 23.05 8H27.1C27.3333 8 27.5417 8.07917 27.725 8.2375C27.9083 8.39583 28.0167 8.58333 28.05 8.8L28.7 12.3C28.7333 12.5667 28.725 12.7917 28.675 12.975C28.625 13.1583 28.5333 13.3167 28.4 13.45L25.975 15.9C26.3083 16.5167 26.7042 17.1125 27.1625 17.6875C27.6208 18.2625 28.125 18.8167 28.675 19.35C29.1917 19.8667 29.7333 20.3458 30.3 20.7875C30.8667 21.2292 31.4667 21.6333 32.1 22L34.45 19.65C34.6 19.5 34.7958 19.3875 35.0375 19.3125C35.2792 19.2375 35.5167 19.2167 35.75 19.25L39.2 19.95C39.4333 20.0167 39.625 20.1375 39.775 20.3125C39.925 20.4875 40 20.6833 40 20.9V24.95C40 25.25 39.9 25.5 39.7 25.7C39.5 25.9 39.25 26 38.95 26ZM25.025 14L26.675 12.35L26.25 10H24.025C24.1083 10.6833 24.225 11.3583 24.375 12.025C24.525 12.6917 24.7417 13.35 25.025 14ZM33.975 22.95C34.625 23.2333 35.2875 23.4583 35.9625 23.625C36.6375 23.7917 37.3167 23.9 38 23.95V21.75L35.65 21.275L33.975 22.95ZM37 16C35.6167 16 34.4375 15.5125 33.4625 14.5375C32.4875 13.5625 32 12.3833 32 11C32 9.61667 32.4875 8.4375 33.4625 7.4625C34.4375 6.4875 35.6167 6 37 6C38.3833 6 39.5625 6.4875 40.5375 7.4625C41.5125 8.4375 42 9.61667 42 11C42 12.3833 41.5125 13.5625 40.5375 14.5375C39.5625 15.5125 38.3833 16 37 16ZM36.5 14H37.5V10H36.5V14ZM37 9C37.1333 9 37.25 8.95 37.35 8.85C37.45 8.75 37.5 8.63333 37.5 8.5C37.5 8.36667 37.45 8.25 37.35 8.15C37.25 8.05 37.1333 8 37 8C36.8667 8 36.75 8.05 36.65 8.15C36.55 8.25 36.5 8.36667 36.5 8.5C36.5 8.63333 36.55 8.75 36.65 8.85C36.75 8.95 36.8667 9 37 9Z" fill="white"/>
</g>
</svg>
