<svg width="38" height="47" viewBox="0 0 38 47" fill="none" xmlns="http://www.w3.org/2000/svg">
<g filter="url(#filter0_d_727_10753)">
<path d="M19 32.4L5.875 18L32.125 18L19 32.4Z" fill="#FF8243"/>
<path d="M29.3845 14.4C29.3845 17.044 28.2904 19.5797 26.343 21.4493C24.3955 23.3189 21.7541 24.3692 18.9999 24.3692C17.6228 24.3692 16.3022 23.8441 15.3284 22.9093C14.3547 21.9745 13.8076 20.7066 13.8076 19.3846C13.8076 18.0626 14.3547 16.7948 15.3284 15.86C16.3022 14.9252 17.6228 14.4 18.9999 14.4C20.377 14.4 21.6977 13.8748 22.6714 12.9401C23.6452 12.0053 24.1922 10.7374 24.1922 9.4154C24.1922 8.0934 23.6452 6.82554 22.6714 5.89075C21.6977 4.95595 20.377 4.43079 18.9999 4.43079C21.7541 4.43079 24.3955 5.48111 26.343 7.3507C28.2904 9.2203 29.3845 11.756 29.3845 14.4Z" fill="#FF8243"/>
<path d="M19 3.59998C16.775 3.59998 14.5999 4.23338 12.7498 5.4201C10.8998 6.60682 9.45785 8.29355 8.60636 10.267C7.75487 12.2404 7.53209 14.412 7.96617 16.5069C8.40025 18.6019 9.47171 20.5263 11.0451 22.0367C12.6184 23.5471 14.623 24.5757 16.8052 24.9924C18.9875 25.4092 21.2495 25.1953 23.3052 24.3779C25.3609 23.5604 27.1179 22.1762 28.354 20.4001C29.5902 18.6241 30.25 16.536 30.25 14.4C30.2468 11.5366 29.0606 8.7913 26.9515 6.76656C24.8424 4.74182 21.9827 3.603 19 3.59998ZM9.48077 14.4C9.48364 11.9771 10.4875 9.65434 12.2721 7.94114C14.0566 6.22794 16.4762 5.26426 19 5.26151C20.1476 5.26151 21.2481 5.69915 22.0596 6.47815C22.8711 7.25714 23.3269 8.31369 23.3269 9.41536C23.3269 10.517 22.8711 11.5736 22.0596 12.3526C21.2481 13.1316 20.1476 13.5692 19 13.5692C17.9779 13.569 16.9724 13.817 16.0771 14.2902C15.1817 14.7634 14.4257 15.4464 13.8792 16.2755C13.3328 17.1047 13.0138 18.0531 12.952 19.0325C12.8901 20.0119 13.0873 20.9904 13.5254 21.8769C12.2758 21.0336 11.2559 19.9139 10.552 18.6126C9.84802 17.3112 9.48061 15.8663 9.48077 14.4ZM19 23.5384C17.8524 23.5384 16.7519 23.1008 15.9404 22.3218C15.129 21.5428 14.6731 20.4862 14.6731 19.3846C14.6731 18.2829 15.129 17.2264 15.9404 16.4474C16.7519 15.6684 17.8524 15.2307 19 15.2307C20.0213 15.2306 21.026 14.9825 21.9207 14.5096C22.8154 14.0366 23.571 13.3542 24.1173 12.5258C24.6636 11.6973 24.9828 10.7497 25.0453 9.7711C25.1077 8.79246 24.9114 7.81453 24.4746 6.92824C26.1276 8.04574 27.3671 9.63945 28.0135 11.4785C28.6598 13.3175 28.6794 15.3063 28.0695 17.1568C27.4596 19.0072 26.2519 20.6232 24.6212 21.7706C22.9906 22.918 21.0218 23.5372 19 23.5384Z" fill="white"/>
<path d="M8.61547 14.4C8.61547 11.756 9.70956 9.22032 11.6571 7.35073C13.6045 5.48114 16.2459 4.43081 19.0001 4.43081C20.3772 4.43081 21.6978 4.95597 22.6716 5.89077C23.6453 6.82557 24.1924 8.09342 24.1924 9.41542C24.1924 10.7374 23.6453 12.0053 22.6716 12.9401C21.6978 13.8749 20.3772 14.4 19.0001 14.4C17.623 14.4 16.3023 14.9252 15.3286 15.86C14.3548 16.7948 13.8078 18.0626 13.8078 19.3846C13.8078 20.7067 14.3548 21.9745 15.3286 22.9093C16.3023 23.8441 17.623 24.3693 19.0001 24.3693C16.2459 24.3693 13.6045 23.3189 11.657 21.4493C9.70956 19.5798 8.61547 17.044 8.61547 14.4Z" fill="#1D1B20"/>
<path d="M19 31.23C22.8125 27.87 25.6406 24.8175 27.4844 22.0725C29.3281 19.3275 30.25 16.89 30.25 14.76C30.25 11.49 29.1641 8.8125 26.9922 6.7275C24.8203 4.6425 22.1562 3.6 19 3.6C15.8438 3.6 13.1797 4.6425 11.0078 6.7275C8.83594 8.8125 7.75 11.49 7.75 14.76C7.75 16.89 8.67188 19.3275 10.5156 22.0725C12.3594 24.8175 15.1875 27.87 19 31.23ZM19 36C13.9688 31.89 10.2109 28.0725 7.72656 24.5475C5.24219 21.0225 4 17.76 4 14.76C4 10.26 5.50781 6.675 8.52344 4.005C11.5391 1.335 15.0312 0 19 0C22.9688 0 26.4609 1.335 29.4766 4.005C32.4922 6.675 34 10.26 34 14.76C34 17.76 32.7578 21.0225 30.2734 24.5475C27.7891 28.0725 24.0312 31.89 19 36Z" fill="#FF8243"/>
<circle cx="19" cy="14.5" r="11.5" fill="#FF8243"/>
<ellipse cx="19" cy="37" rx="5" ry="2" fill="#717174"/>
<circle cx="19" cy="14" r="4" fill="white"/>
</g>
<defs>
<filter id="filter0_d_727_10753" x="0" y="0" width="38" height="47" filterUnits="userSpaceOnUse" color-interpolation-filters="sRGB">
<feFlood flood-opacity="0" result="BackgroundImageFix"/>
<feColorMatrix in="SourceAlpha" type="matrix" values="0 0 0 0 0 0 0 0 0 0 0 0 0 0 0 0 0 0 127 0" result="hardAlpha"/>
<feOffset dy="4"/>
<feGaussianBlur stdDeviation="2"/>
<feComposite in2="hardAlpha" operator="out"/>
<feColorMatrix type="matrix" values="0 0 0 0 0.483845 0 0 0 0 0.233855 0 0 0 0 0.10786 0 0 0 0.15 0"/>
<feBlend mode="normal" in2="BackgroundImageFix" result="effect1_dropShadow_727_10753"/>
<feBlend mode="normal" in="SourceGraphic" in2="effect1_dropShadow_727_10753" result="shape"/>
</filter>
</defs>
</svg>
