<svg width="30" height="36" viewBox="0 0 30 36" fill="none" xmlns="http://www.w3.org/2000/svg">
<path d="M15 32.4L1.875 18L28.125 18L15 32.4Z" fill="#F5D545"/>
<path d="M25.3845 14.4C25.3845 17.044 24.2904 19.5797 22.343 21.4493C20.3955 23.3189 17.7541 24.3692 14.9999 24.3692C13.6228 24.3692 12.3022 23.8441 11.3284 22.9093C10.3547 21.9745 9.80762 20.7066 9.80762 19.3846C9.80762 18.0626 10.3547 16.7948 11.3284 15.86C12.3022 14.9252 13.6228 14.4 14.9999 14.4C16.377 14.4 17.6977 13.8748 18.6714 12.9401C19.6452 12.0053 20.1922 10.7374 20.1922 9.4154C20.1922 8.0934 19.6452 6.82554 18.6714 5.89075C17.6977 4.95595 16.377 4.43079 14.9999 4.43079C17.7541 4.43079 20.3955 5.48111 22.343 7.3507C24.2904 9.2203 25.3845 11.756 25.3845 14.4Z" fill="#F5D545"/>
<path d="M15 3.59998C12.775 3.59998 10.5999 4.23338 8.74984 5.4201C6.89979 6.60682 5.45785 8.29355 4.60636 10.267C3.75487 12.2404 3.53209 14.412 3.96617 16.5069C4.40025 18.6019 5.47171 20.5263 7.04505 22.0367C8.61839 23.5471 10.623 24.5757 12.8052 24.9924C14.9875 25.4092 17.2495 25.1953 19.3052 24.3779C21.3609 23.5604 23.1179 22.1762 24.354 20.4001C25.5902 18.6241 26.25 16.536 26.25 14.4C26.2468 11.5366 25.0606 8.7913 22.9515 6.76656C20.8424 4.74182 17.9827 3.603 15 3.59998ZM5.48077 14.4C5.48364 11.9771 6.48747 9.65434 8.27205 7.94114C10.0566 6.22794 12.4762 5.26426 15 5.26151C16.1476 5.26151 17.2481 5.69915 18.0596 6.47815C18.8711 7.25714 19.3269 8.31369 19.3269 9.41536C19.3269 10.517 18.8711 11.5736 18.0596 12.3526C17.2481 13.1316 16.1476 13.5692 15 13.5692C13.9779 13.569 12.9724 13.817 12.0771 14.2902C11.1817 14.7634 10.4257 15.4464 9.87924 16.2755C9.33283 17.1047 9.01383 18.0531 8.95196 19.0325C8.89008 20.0119 9.08734 20.9904 9.52536 21.8769C8.27578 21.0336 7.25594 19.9139 6.55198 18.6126C5.84802 17.3112 5.48061 15.8663 5.48077 14.4ZM15 23.5384C13.8524 23.5384 12.7519 23.1008 11.9404 22.3218C11.129 21.5428 10.6731 20.4862 10.6731 19.3846C10.6731 18.2829 11.129 17.2264 11.9404 16.4474C12.7519 15.6684 13.8524 15.2307 15 15.2307C16.0213 15.2306 17.026 14.9825 17.9207 14.5096C18.8154 14.0366 19.571 13.3542 20.1173 12.5258C20.6636 11.6973 20.9828 10.7497 21.0453 9.7711C21.1077 8.79246 20.9114 7.81453 20.4746 6.92824C22.1276 8.04574 23.3671 9.63945 24.0135 11.4785C24.6598 13.3175 24.6794 15.3063 24.0695 17.1568C23.4596 19.0072 22.2519 20.6232 20.6212 21.7706C18.9906 22.918 17.0218 23.5372 15 23.5384Z" fill="white"/>
<path d="M4.61547 14.4C4.61547 11.756 5.70956 9.22032 7.65705 7.35073C9.60454 5.48114 12.2459 4.43081 15.0001 4.43081C16.3772 4.43081 17.6978 4.95597 18.6716 5.89077C19.6453 6.82557 20.1924 8.09342 20.1924 9.41542C20.1924 10.7374 19.6453 12.0053 18.6716 12.9401C17.6978 13.8749 16.3772 14.4 15.0001 14.4C13.623 14.4 12.3023 14.9252 11.3286 15.86C10.3548 16.7948 9.80777 18.0626 9.80777 19.3846C9.80777 20.7067 10.3548 21.9745 11.3286 22.9093C12.3023 23.8441 13.623 24.3693 15.0001 24.3693C12.2459 24.3693 9.60454 23.3189 7.65705 21.4493C5.70956 19.5798 4.61547 17.044 4.61547 14.4Z" fill="#1D1B20"/>
<path d="M15 25.2C17.225 25.2 19.4001 24.5665 21.2502 23.3798C23.1002 22.1931 24.5422 20.5064 25.3936 18.5329C26.2451 16.5595 26.4679 14.388 26.0338 12.293C25.5997 10.198 24.5283 8.27361 22.9549 6.76321C21.3816 5.2528 19.3771 4.2242 17.1948 3.80748C15.0125 3.39076 12.7505 3.60464 10.6948 4.42206C8.63914 5.23949 6.88214 6.62375 5.64597 8.3998C4.4098 10.1759 3.75 12.2639 3.75 14.4C3.75315 17.2634 4.93943 20.0086 7.04853 22.0334C9.15763 24.0581 12.0173 25.1969 15 25.2ZM24.5192 14.4C24.5164 16.8228 23.5125 19.1456 21.7279 20.8588C19.9434 22.572 17.5238 23.5357 15 23.5384C13.8524 23.5384 12.7519 23.1008 11.9404 22.3218C11.1289 21.5428 10.6731 20.4862 10.6731 19.3846C10.6731 18.2829 11.1289 17.2264 11.9404 16.4474C12.7519 15.6684 13.8524 15.2307 15 15.2307C16.0221 15.231 17.0276 14.9829 17.9229 14.5097C18.8183 14.0366 19.5743 13.3536 20.1208 12.5244C20.6672 11.6952 20.9862 10.7468 21.048 9.7674C21.1099 8.78803 20.9127 7.80954 20.4746 6.92304C21.7242 7.76637 22.7441 8.88599 23.448 10.1874C24.152 11.4887 24.5194 12.9336 24.5192 14.4ZM15 5.2615C16.1476 5.2615 17.2481 5.69914 18.0596 6.47813C18.8711 7.25713 19.3269 8.31368 19.3269 9.41535C19.3269 10.517 18.8711 11.5736 18.0596 12.3526C17.2481 13.1316 16.1476 13.5692 15 13.5692C13.9787 13.5694 12.974 13.8174 12.0793 14.2904C11.1846 14.7633 10.429 15.4457 9.88272 16.2741C9.33644 17.1026 9.01723 18.0502 8.95475 19.0288C8.89227 20.0075 9.08856 20.9854 9.52536 21.8717C7.87235 20.7542 6.63289 19.1605 5.98655 17.3215C5.34021 15.4824 5.32057 13.4936 5.93047 11.6432C6.54037 9.79269 7.74814 8.17671 9.37878 7.02933C11.0094 5.88195 12.9783 5.26277 15 5.2615Z" fill="white"/>
<path d="M15 31.23C18.8125 27.87 21.6406 24.8175 23.4844 22.0725C25.3281 19.3275 26.25 16.89 26.25 14.76C26.25 11.49 25.1641 8.8125 22.9922 6.7275C20.8203 4.6425 18.1562 3.6 15 3.6C11.8438 3.6 9.17969 4.6425 7.00781 6.7275C4.83594 8.8125 3.75 11.49 3.75 14.76C3.75 16.89 4.67188 19.3275 6.51563 22.0725C8.35938 24.8175 11.1875 27.87 15 31.23ZM15 36C9.96875 31.89 6.21094 28.0725 3.72656 24.5475C1.24219 21.0225 0 17.76 0 14.76C0 10.26 1.50781 6.675 4.52344 4.005C7.53906 1.335 11.0312 0 15 0C18.9688 0 22.4609 1.335 25.4766 4.005C28.4922 6.675 30 10.26 30 14.76C30 17.76 28.7578 21.0225 26.2734 24.5475C23.7891 28.0725 20.0312 31.89 15 36Z" fill="#F5D545"/>
</svg>
