<svg width="30" height="36" viewBox="0 0 30 36" fill="none" xmlns="http://www.w3.org/2000/svg">
<path d="M10.5 25.5L6.5001 22L4 18L17.2339 18L14.5 22L10.5 25.5Z" fill="#F5D545"/>
<path d="M15 31.23C18.8125 27.87 21.6406 24.8175 23.4844 22.0725C25.3281 19.3275 26.25 16.89 26.25 14.76C26.25 11.49 25.1641 8.8125 22.9922 6.7275C20.8203 4.6425 18.1562 3.6 15 3.6C11.8438 3.6 9.17969 4.6425 7.00781 6.7275C4.83594 8.8125 3.75 11.49 3.75 14.76C3.75 16.89 4.67188 19.3275 6.51563 22.0725C8.35938 24.8175 11.1875 27.87 15 31.23ZM15 36C9.96875 31.89 6.21094 28.0725 3.72656 24.5475C1.24219 21.0225 0 17.76 0 14.76C0 10.26 1.50781 6.675 4.52344 4.005C7.53906 1.335 11.0312 0 15 0C18.9688 0 22.4609 1.335 25.4766 4.005C28.4922 6.675 30 10.26 30 14.76C30 17.76 28.7578 21.0225 26.2734 24.5475C23.7891 28.0725 20.0312 31.89 15 36Z" fill="#F5D545"/>
<path d="M15 1.57141C22.1392 1.57141 28 7.12817 28 14.0714C28 21.0147 22.1392 26.5714 15 26.5714C7.86084 26.5714 2 21.0147 2 14.0714C2 7.12817 7.86084 1.57141 15 1.57141Z" fill="white" stroke="#F5D545" stroke-width="2"/>
<path d="M11.6162 9.89392H12.9805L14.9893 15.6356L16.9981 9.89392H18.3623L15.5371 17.7142H14.4414L11.6162 9.89392ZM10.8804 9.89392H12.2393L12.4863 15.4906V17.7142H10.8804V9.89392ZM17.7393 9.89392H19.1035V17.7142H17.4922V15.4906L17.7393 9.89392Z" fill="#F5D545"/>
</svg>
