<svg width="22" height="20" viewBox="0 0 22 20" fill="none" xmlns="http://www.w3.org/2000/svg">
<path fill-rule="evenodd" clip-rule="evenodd" d="M15.069 4.5C15.069 6.98528 13.0543 9 10.569 9C8.08375 9 6.06903 6.98528 6.06903 4.5C6.06903 2.01472 8.08375 0 10.569 0C13.0543 0 15.069 2.01472 15.069 4.5ZM13.569 4.5C13.569 6.15685 12.2259 7.5 10.569 7.5C8.91218 7.5 7.56903 6.15685 7.56903 4.5C7.56903 2.84315 8.91218 1.5 10.569 1.5C12.2259 1.5 13.569 2.84315 13.569 4.5Z" fill="#FF8243"/>
<path d="M10.569 11.25C5.71324 11.25 1.57599 14.1213 0 18.144C0.383921 18.5253 0.788354 18.8859 1.2115 19.224C2.38505 15.5308 6.06657 12.75 10.569 12.75C15.0715 12.75 18.753 15.5308 19.9266 19.2241C20.3497 18.8859 20.7541 18.5253 21.1381 18.144C19.5621 14.1213 15.4248 11.25 10.569 11.25Z" fill="#FF8243"/>
</svg>
