<svg width="24" height="24" viewBox="0 0 24 24" fill="none" xmlns="http://www.w3.org/2000/svg">
<path d="M19 6L15 2L13.55 3.4L15.15 5L8 5C6.9 5 5.95833 5.39167 5.175 6.175C4.39167 6.95833 4 7.9 4 9C4 10.1 4.39167 11.0417 5.175 11.825C5.95833 12.6083 6.9 13 8 13L15 13C15.55 13 16.0208 13.1958 16.4125 13.5875C16.8042 13.9792 17 14.45 17 15C17 15.55 16.8042 16.0208 16.4125 16.4125C16.0208 16.8042 15.55 17 15 17L7.85 17L7.85 17.9663L7.85 19L15 19C16.1 19 17.0417 18.6083 17.825 17.825C18.6083 17.0417 19 16.1 19 15C19 13.9 18.6083 12.9583 17.825 12.175C17.0417 11.3917 16.1 11 15 11L8 11C7.45 11 6.97917 10.8042 6.5875 10.4125C6.19583 10.0208 6 9.55 6 9C6 8.45 6.19583 7.97917 6.5875 7.5875C6.97917 7.19583 7.45 7 8 7L15.15 7L13.55 8.6L15 10L19 6Z" fill="#1C1B1F"/>
<circle cx="7.4668" cy="18" r="2" fill="#1C1B1F" stroke="#1C1B1F" stroke-width="2"/>
</svg>
