<svg width="24" height="24" viewBox="0 0 24 24" fill="none" xmlns="http://www.w3.org/2000/svg">
<path d="M17.3333 17C17.5101 17 17.6797 17.0702 17.8047 17.1953C17.9298 17.3203 18 17.4899 18 17.6667C18 17.8435 17.9298 18.013 17.8047 18.1381C17.6797 18.2631 17.5101 18.3333 17.3333 18.3333C17.1565 18.3333 16.987 18.2631 16.8619 18.1381C16.7369 18.013 16.6667 17.8435 16.6667 17.6667C16.6667 17.4899 16.7369 17.3203 16.8619 17.1953C16.987 17.0702 17.1565 17 17.3333 17ZM14.6667 17C14.8435 17 15.013 17.0702 15.1381 17.1953C15.2631 17.3203 15.3333 17.4899 15.3333 17.6667C15.3333 17.8435 15.2631 18.013 15.1381 18.1381C15.013 18.2631 14.8435 18.3333 14.6667 18.3333C14.4899 18.3333 14.3203 18.2631 14.1953 18.1381C14.0702 18.013 14 17.8435 14 17.6667C14 17.4899 14.0702 17.3203 14.1953 17.1953C14.3203 17.0702 14.4899 17 14.6667 17ZM12 17C12.1768 17 12.3464 17.0702 12.4714 17.1953C12.5964 17.3203 12.6667 17.4899 12.6667 17.6667C12.6667 17.8435 12.5964 18.013 12.4714 18.1381C12.3464 18.2631 12.1768 18.3333 12 18.3333C11.8232 18.3333 11.6536 18.2631 11.5286 18.1381C11.4036 18.013 11.3333 17.8435 11.3333 17.6667C11.3333 17.4899 11.4036 17.3203 11.5286 17.1953C11.6536 17.0702 11.8232 17 12 17ZM9.33333 17C9.51014 17 9.67971 17.0702 9.80474 17.1953C9.92976 17.3203 10 17.4899 10 17.6667C10 17.8435 9.92976 18.013 9.80474 18.1381C9.67971 18.2631 9.51014 18.3333 9.33333 18.3333C9.15652 18.3333 8.98695 18.2631 8.86193 18.1381C8.7369 18.013 8.66667 17.8435 8.66667 17.6667C8.66667 17.4899 8.7369 17.3203 8.86193 17.1953C8.98695 17.0702 9.15652 17 9.33333 17ZM6.66667 17C6.84348 17 7.01305 17.0702 7.13807 17.1953C7.2631 17.3203 7.33333 17.4899 7.33333 17.6667C7.33333 17.8435 7.2631 18.013 7.13807 18.1381C7.01305 18.2631 6.84348 18.3333 6.66667 18.3333C6.48986 18.3333 6.32029 18.2631 6.19526 18.1381C6.07024 18.013 6 17.8435 6 17.6667C6 17.4899 6.07024 17.3203 6.19526 17.1953C6.32029 17.0702 6.48986 17 6.66667 17ZM8 15C8.17681 15 8.34638 15.0702 8.4714 15.1953C8.59643 15.3203 8.66667 15.4899 8.66667 15.6667C8.66667 15.8435 8.59643 16.013 8.4714 16.1381C8.34638 16.2631 8.17681 16.3333 8 16.3333C7.82319 16.3333 7.65362 16.2631 7.5286 16.1381C7.40357 16.013 7.33333 15.8435 7.33333 15.6667C7.33333 15.4899 7.40357 15.3203 7.5286 15.1953C7.65362 15.0702 7.82319 15 8 15ZM10.6667 15C10.8435 15 11.013 15.0702 11.1381 15.1953C11.2631 15.3203 11.3333 15.4899 11.3333 15.6667C11.3333 15.8435 11.2631 16.013 11.1381 16.1381C11.013 16.2631 10.8435 16.3333 10.6667 16.3333C10.4899 16.3333 10.3203 16.2631 10.1953 16.1381C10.0702 16.013 10 15.8435 10 15.6667C10 15.4899 10.0702 15.3203 10.1953 15.1953C10.3203 15.0702 10.4899 15 10.6667 15ZM13.3333 15C13.5101 15 13.6797 15.0702 13.8047 15.1953C13.9298 15.3203 14 15.4899 14 15.6667C14 15.8435 13.9298 16.013 13.8047 16.1381C13.6797 16.2631 13.5101 16.3333 13.3333 16.3333C13.1565 16.3333 12.987 16.2631 12.8619 16.1381C12.7369 16.013 12.6667 15.8435 12.6667 15.6667C12.6667 15.4899 12.7369 15.3203 12.8619 15.1953C12.987 15.0702 13.1565 15 13.3333 15ZM16 15C16.1768 15 16.3464 15.0702 16.4714 15.1953C16.5964 15.3203 16.6667 15.4899 16.6667 15.6667C16.6667 15.8435 16.5964 16.013 16.4714 16.1381C16.3464 16.2631 16.1768 16.3333 16 16.3333C15.8232 16.3333 15.6536 16.2631 15.5286 16.1381C15.4036 16.013 15.3333 15.8435 15.3333 15.6667C15.3333 15.4899 15.4036 15.3203 15.5286 15.1953C15.6536 15.0702 15.8232 15 16 15ZM9.33333 13C9.51014 13 9.67971 13.0702 9.80474 13.1953C9.92976 13.3203 10 13.4899 10 13.6667C10 13.8435 9.92976 14.013 9.80474 14.1381C9.67971 14.2631 9.51014 14.3333 9.33333 14.3333C9.15652 14.3333 8.98695 14.2631 8.86193 14.1381C8.7369 14.013 8.66667 13.8435 8.66667 13.6667C8.66667 13.4899 8.7369 13.3203 8.86193 13.1953C8.98695 13.0702 9.15652 13 9.33333 13ZM12 13C12.1768 13 12.3464 13.0702 12.4714 13.1953C12.5964 13.3203 12.6667 13.4899 12.6667 13.6667C12.6667 13.8435 12.5964 14.013 12.4714 14.1381C12.3464 14.2631 12.1768 14.3333 12 14.3333C11.8232 14.3333 11.6536 14.2631 11.5286 14.1381C11.4036 14.013 11.3333 13.8435 11.3333 13.6667C11.3333 13.4899 11.4036 13.3203 11.5286 13.1953C11.6536 13.0702 11.8232 13 12 13ZM14.6667 13C14.8435 13 15.013 13.0702 15.1381 13.1953C15.2631 13.3203 15.3333 13.4899 15.3333 13.6667C15.3333 13.8435 15.2631 14.013 15.1381 14.1381C15.013 14.2631 14.8435 14.3333 14.6667 14.3333C14.4899 14.3333 14.3203 14.2631 14.1953 14.1381C14.0702 14.013 14 13.8435 14 13.6667C14 13.4899 14.0702 13.3203 14.1953 13.1953C14.3203 13.0702 14.4899 13 14.6667 13ZM16.6667 11.6667H7.33333V10.3333H16.6667V11.6667ZM15.9467 9.66667H8.05333C8.33333 8 9.66667 6.66667 11.3333 6.38667V5H12.6667V6.38667C14.3333 6.66667 15.6667 8 15.9467 9.66667Z" fill="#212121"/>
</svg>
