<svg width="25" height="25" viewBox="0 0 25 25" fill="none" xmlns="http://www.w3.org/2000/svg">
<path d="M18.9998 8.99998C18.9998 12.3137 16.3135 15 12.9998 15C9.68612 15 6.99984 12.3137 6.99984 8.99998C6.99984 5.68628 9.68612 3 12.9998 3C16.3135 3 18.9998 5.68628 18.9998 8.99998Z" fill="#E54345"/>
<path d="M23 15C23 18.3137 20.3137 21 17 21C13.6863 21 11 18.3137 11 15C11 11.6863 13.6863 9.00005 17 9.00005C20.3137 9.00005 23 11.6863 23 15Z" fill="#30BE56"/>
<path d="M14 15C14 18.3137 11.3137 21 8 21C4.68629 21 2 18.3137 2 15C2 11.6863 4.68629 9.00005 8 9.00005C11.3137 9.00005 14 11.6863 14 15Z" fill="#F5D545"/>
</svg>
